<svg xmlns="http://www.w3.org/2000/svg" viewBox="0 0 960 960"><path d="M353.3846435546875 412.8475341796875Q353.3846435546875 412.8475341796875 353.3846435546875 412.8475341796875Q353.3846435546875 412.8475341796875 353.3846435546875 412.8475341796875Q353.3846435546875 412.8475341796875 353.3846435546875 412.8475341796875Q353.3846435546875 412.8475341796875 353.3846435546875 412.8475341796875Q353.3846435546875 412.8475341796875 353.3846435546875 412.8475341796875Q353.3846435546875 412.8475341796875 353.3846435546875 412.8475341796875Q353.3846435546875 412.8475341796875 353.3846435546875 412.8475341796875Q353.3846435546875 412.8475341796875 353.3846435546875 412.8475341796875Q353.3846435546875 412.8475341796875 353.3846435546875 412.8475341796875Q353.3846435546875 412.8475341796875 353.3846435546875 412.8475341796875Q353.3846435546875 412.8475341796875 353.3846435546875 412.8475341796875Q353.3846435546875 412.8475341796875 353.3846435546875 412.8475341796875Q353.3846435546875 412.8475341796875 353.3846435546875 412.8475341796875Q353.3846435546875 412.8475341796875 353.3846435546875 412.8475341796875Q353.3846435546875 412.8475341796875 353.3846435546875 412.8475341796875Q353.3846435546875 412.8475341796875 353.3846435546875 412.8475341796875Q353.3846435546875 412.8475341796875 353.3846435546875 412.8475341796875Q353.3846435546875 412.8475341796875 353.3846435546875 412.8475341796875Q353.3846435546875 412.8475341796875 353.3846435546875 412.8475341796875Q353.3846435546875 412.8475341796875 353.3846435546875 412.8475341796875Q353.3846435546875 412.8475341796875 353.3846435546875 412.8475341796875Q353.3846435546875 412.8475341796875 353.3846435546875 412.8475341796875ZM353.3846435546875 412.8475341796875Q353.3846435546875 412.8475341796875 353.3846435546875 412.8475341796875Q353.3846435546875 412.8475341796875 353.3846435546875 412.8475341796875Q353.3846435546875 412.8475341796875 353.3846435546875 412.8475341796875Q353.3846435546875 412.8475341796875 353.3846435546875 412.8475341796875Q353.3846435546875 412.8475341796875 353.3846435546875 412.8475341796875Q353.3846435546875 412.8475341796875 353.3846435546875 412.8475341796875ZM298.1539306640625 191.386474609375Q312.7689208984375 180.463623046875 328.8839111328125 188.24185180664062Q344.9989013671875 196.02008056640625 344.9989013671875 214.5396728515625V227.462158203125Q344.9989013671875 258.87288411458337 367.22998046875 280.8603922526042Q389.4610595703125 302.847900390625 421.0 302.847900390625Q435.3846435546875 302.847900390625 448.1539306640625 297.2325439453125Q460.9232177734375 291.6171875 470.4617919921875 281.7711181640625Q475.4617919921875 275.925048828125 483.50018310546875 275.1943359375Q491.53857421875 274.463623046875 498.45252182904414 279.37620405717325Q520.9228515625 296.0789794921875 536.971451979417 317.5024240854624Q553.0200523963341 338.9258686787373 564.8453369140625 363.5400390625Q570.5374755859375 374.693603515625 565.8837280273438 385.65484619140625Q561.22998046875 396.6160888671875 549.8840942382812 402.3082275390625Q538.5382080078125 408.0003662109375 526.8846435546875 403.46197509765625Q515.2310791015625 398.923583984375 509.5389404296875 387.77001953125Q504.154296875 375.8468017578125 498.11572265625 366.23126220703125Q492.0771484375 356.61572265625 483.1539306640625 346.6925048828125Q469.1539306640625 355.0771484375 453.2733790620845 358.9617919921875Q437.3928274601064 362.846435546875 421.0 362.846435546875Q376.6153564453125 362.846435546875 341.30767822265625 337.00018310546875Q306.0 311.1539306640625 292.307861328125 268.6153564453125Q251.230712890625 307.1539306640625 223.11517333984375 354.9617919921875Q194.9996337890625 402.7696533203125 194.9996337890625 458.8468017578125Q194.9996337890625 498.3089599609375 212.34625244140625 531.3862915039062Q229.69287109375 564.463623046875 258.693603515625 585.0789794921875Q257.155029296875 582.0018310546875 256.3857421875 578.7323608398438Q255.616455078125 575.462890625 255.616455078125 571.616455078125Q256.84716796875 553.155029296875 265.1932373046875 536.8089599609375Q273.539306640625 520.462890625 286.3853759765625 507.6168212890625L334.6925048828125 459.3096923828125Q344.9232177734375 449.0789794921875 359.7307861328125 449.0789794921875Q374.5383544921875 449.0789794921875 385.3074951171875 459.3096923828125L419.4610595703125 492.4632568359375Q428.7685546875 501.770751953125 428.7685546875 514.0396728515625Q428.7685546875 526.30859375 419.37744140625 535.69970703125Q410.7689208984375 544.3082275390625 398.69232177734375 544.6159057617188Q386.61572265625 544.923583984375 377.3082275390625 536.2314453125L360.0 518.9232177734375L328.5382080078125 550.385009765625Q322.38427734375 556.5389404296875 318.69195556640625 563.8723347981771Q314.9996337890625 571.2057291666667 314.9996337890625 580.2314453125Q314.9996337890625 586.3853759765625 316.38427734375 591.039306640625Q317.7689208984375 595.6932373046875 320.5382080078125 600.4625244140625Q325.7689208984375 611.3853759765625 323.0382080078125 622.8851928710938Q320.3074951171875 634.385009765625 311.6277643019153 643.0647405808973Q295.846435546875 658.8460693359375 274.1757732190584 658.4742838541666Q252.50511089124177 658.1024983723958 234.8475341796875 645.4617919921875Q217.92431640625 634.4617919921875 203.19342041015625 619.8848266601562Q188.4625244140625 605.307861328125 176.30859375 588.769287109375Q156.84716796875 561.307861328125 145.92413330078125 527.9375162387113Q135.0010986328125 494.56717114929756 135.0010986328125 458.8468017578125Q135.0010986328125 365.30859375 182.77001953125 305.30914306640625Q230.5389404296875 245.3096923828125 298.1539306640625 191.386474609375ZM533.076416015625 615.229248046875 488.8438720703125 659.4617919921875V857.3089599609375Q488.8438720703125 870.0586486816406 480.215202465392 878.6834381103515Q471.5865328604715 887.3082275390625 458.83110822711075 887.3082275390625Q446.07568359375 887.3082275390625 437.46051025390625 878.6834381103515Q428.8453369140625 870.0586486816406 428.8453369140625 857.3089599609375V719.4603271484375L282.45849609375 866.2318115234375Q274.2792154947917 874.9239501953125 261.63850911458337 874.9239501953125Q248.997802734375 874.9239501953125 240.3056640625 866.2318115234375Q231.613525390625 857.5396728515625 231.613525390625 845.1553955078125Q231.613525390625 832.7711181640625 240.3056640625 824.0789794921875L784.0789794921875 280.3056640625Q792.386474609375 271.9981689453125 804.9630737304688 271.80584716796875Q817.5396728515625 271.613525390625 826.2318115234375 280.3056640625Q834.9239501953125 288.997802734375 834.9239501953125 301.382080078125Q834.9239501953125 313.766357421875 826.2318115234375 322.45849609375L679.4603271484375 469.22998046875H817.3089599609375Q830.0586486816406 469.22998046875 838.6834381103515 477.8586500736705Q847.3082275390625 486.487319678591 847.3082275390625 499.24274431195175Q847.3082275390625 511.9981689453125 838.6834381103515 520.6133422851562Q830.0586486816406 529.228515625 817.3089599609375 529.228515625H619.0771484375L575.229248046875 573.076416015625L644.0760498046875 641.9232177734375H817.3089599609375Q830.0586486816406 641.9232177734375 838.6834381103515 650.5518873783581Q847.3082275390625 659.1805569832785 847.3082275390625 671.9359816166393Q847.3082275390625 684.69140625 838.6834381103515 693.3065795898438Q830.0586486816406 701.9217529296875 817.3089599609375 701.9217529296875H704.0745849609375L793.53857421875 791.3857421875Q801.8460693359375 799.6932373046875 802.0383911132812 812.2698364257812Q802.230712890625 824.846435546875 793.53857421875 833.53857421875Q784.846435546875 842.230712890625 772.462158203125 842.230712890625Q760.077880859375 842.230712890625 751.3857421875 833.53857421875L661.9217529296875 744.0745849609375V857.3089599609375Q661.9217529296875 870.0586486816406 653.2930833247669 878.6834381103515Q644.6644137198465 887.3082275390625 631.9089890864857 887.3082275390625Q619.153564453125 887.3082275390625 610.5383911132812 878.6834381103515Q601.9232177734375 870.0586486816406 601.9232177734375 857.3089599609375V684.0760498046875Z"/></svg>
