<svg xmlns="http://www.w3.org/2000/svg" viewBox="0 0 960 960"><path d="M480 660Q539 660 579.5 619.5Q620 579 620 520Q620 461 579.5 420.5Q539 380 480 380Q421 380 380.5 420.5Q340 461 340 520Q340 579 380.5 619.5Q421 660 480 660ZM480 632Q432 632 400.0 600.0Q368 568 368 520Q368 472 400.0 440.0Q432 408 480 408Q528 408 560.0 440.0Q592 472 592 520Q592 568 560.0 600.0Q528 632 480 632ZM192 788Q166 788 149.0 771.0Q132 754 132 728V312Q132 286 149.0 269.0Q166 252 192 252H308L364 191Q372 182 383.5 177.0Q395 172 408 172H552Q565 172 576.5 177.0Q588 182 596 191L652 252H768Q794 252 811.0 269.0Q828 286 828 312V728Q828 754 811.0 771.0Q794 788 768 788ZM192 760H768Q782 760 791.0 751.0Q800 742 800 728V312Q800 298 791.0 289.0Q782 280 768 280H640L566 200H394L320 280H192Q178 280 169.0 289.0Q160 298 160 312V728Q160 742 169.0 751.0Q178 760 192 760ZM192 760Q178 760 169.0 751.0Q160 742 160 728V312Q160 298 169.0 289.0Q178 280 192 280H320L394 200H566L640 280H768Q782 280 791.0 289.0Q800 298 800 312V728Q800 742 791.0 751.0Q782 760 768 760Z"/></svg>
