<svg xmlns="http://www.w3.org/2000/svg" viewBox="0 0 960 960" fill="currentColor" style="fill:var(--icon-color, currentColor)"><path d="M289 600H389Q406 600 417.5 588.5Q429 577 429 560V400Q429 383 417.5 371.5Q406 360 389 360H289Q272 360 260.5 371.5Q249 383 249 400V560Q249 577 260.5 588.5Q272 600 289 600ZM309 560V500H369V560ZM309 460V400H369V460ZM506 510 567.968253968254 589.0Q570 592 589.9230769230769 600.0Q607 600 615.5 584.5Q624 569 613.0 554.7391304347826L556.0 480.37888198757764L613 405Q624.0 391.304347826087 616.0 375.6521739130435Q608 360 590 360Q583 360 577.375 363.0Q571.75 366.0 568 371L506.495867768595 450.0V390.0Q506.495867768595 377.0 497.92561983471074 368.5Q489.35537190082647 360.0 476.24793388429754 360.0Q463.1404958677686 360.0 454.5702479338843 368.5Q446 377 446 390V570Q446 583 454.5 591.5Q463 600 476.0 600.0Q489 600 497.5 591.5Q506 583 506 570ZM665 500V540Q665 548 671.0 554.0Q677 560 685 560Q693 560 699.0 554.0Q705 548 705 540V500H728Q736 500 742.0 494.0Q748 488 748.0 480.0Q748 472 742.0 466.0Q736 460 728 460H705V420Q705 412 699.0 406.0Q693 400 685.0 400.0Q677 400 671.0 406.0Q665 412 665 420V460H625Q617 460 611.0 466.0Q605 472 605.0 480.0Q605 488 611.0 494.0Q617 500 625 500ZM212 874Q159 874 122.5 837.5Q86 801 86 748V212Q86 159 122.5 122.5Q159 86 212 86H748Q801 86 837.5 122.5Q874 159 874 212V748Q874 801 837.5 837.5Q801 874 748 874ZM212 748H748Q748 748 748.0 748.0Q748 748 748 748V212Q748 212 748.0 212.0Q748 212 748 212H212Q212 212 212.0 212.0Q212 212 212 212V748Q212 748 212.0 748.0Q212 748 212 748ZM212 212Q212 212 212.0 212.0Q212 212 212 212V748Q212 748 212.0 748.0Q212 748 212 748Q212 748 212.0 748.0Q212 748 212 748V212Q212 212 212.0 212.0Q212 212 212 212Z"/></svg>
